PathFileType	4	(x/y/z)	S01_BK_Cal.trc
DataRate	CameraRate	NumFrames	NumMarkers	Units	OrigDataRate	OrigDataStartFrame	OrigNumFrames
240	240	9	51	mm	240	901	2400
Frame#	Time	Sternum			R.Acromium			L.Acromium			Top.Head			R.ASIS			L.ASIS			R.PSIS			L.PSIS			R.Great.Tro			L.Great.Tro			R.Iliac.Crest			L.Iliac.Crest			V.Sacral			R.Thigh.Upper.Post			R.Thigh.Lower.Ant			R.Thigh.Lower.Post			R.Thigh.Upper.Ant			R.Knee.Lat			R.Knee.Med			R.Shank.Upper.Post			R.Shank.Lower.Ant			R.Shank.Lower.Post			R.Shank.Upper.Ant			R.Ankle.Lat			R.Ankle.Med			R.Heel.Upper			R.Heel.Med			R.Heel.Lat			R.Toe.Lat			R.Toe.Med			R.Toe.Tip			L.Thigh.Upper.Post			L.Thigh.Lower.Ant			L.Thigh.Lower.Post			L.Thigh.Upper.Ant			L.Knee.Lat			L.Knee.Med			L.Shank.Upper.Post			L.Shank.Lower.Ant			L.Shank.Lower.Post			L.Shank.Upper.Ant			L.Ankle.Lat			L.Ankle.Med			L.Heel.Upper			L.Heel.Med			L.Heel.Lat			L.Toe.Lat			L.Toe.Med			L.Toe.Tip			Cervical.Spine			Back			
		X1	Y1	Z1	X2	Y2	Z2	X3	Y3	Z3	X4	Y4	Z4	X5	Y5	Z5	X6	Y6	Z6	X7	Y7	Z7	X8	Y8	Z8	X9	Y9	Z9	X10	Y10	Z10	X11	Y11	Z11	X12	Y12	Z12	X13	Y13	Z13	X14	Y14	Z14	X15	Y15	Z15	X16	Y16	Z16	X17	Y17	Z17	X18	Y18	Z18	X19	Y19	Z19	X20	Y20	Z20	X21	Y21	Z21	X22	Y22	Z22	X23	Y23	Z23	X24	Y24	Z24	X25	Y25	Z25	X26	Y26	Z26	X27	Y27	Z27	X28	Y28	Z28	X29	Y29	Z29	X30	Y30	Z30	X31	Y31	Z31	X32	Y32	Z32	X33	Y33	Z33	X34	Y34	Z34	X35	Y35	Z35	X36	Y36	Z36	X37	Y37	Z37	X38	Y38	Z38	X39	Y39	Z39	X40	Y40	Z40	X41	Y41	Z41	X42	Y42	Z42	X43	Y43	Z43	X44	Y44	Z44	X45	Y45	Z45	X46	Y46	Z46	X47	Y47	Z47	X48	Y48	Z48	X49	Y49	Z49	X50	Y50	Z50	X51	Y51	Z51	

901	3.75	726.25	1270.6	274.6	570.34	1510.5	454.25	539.35	1520.2	127.81	470.6	1815.5	298.06	697.93	999.85	428.84	697.61	1000.9	159.52	460.94	1032	337.45	458.28	1029.6	233.4	623.58	945.81	509.11	592.51	945.69	80.857	604.73	1095.5	493.22	583.24	1081.6	88.588	448.78	993.54	283.73	655.91	642.05	514.52	735	578.52	498.36	670.42	554.12	501.3	723.93	668.22	509.93	701.5	490.19	500.63	710.81	481.33	360.48	598.09	363.59	530.68	619.73	262.85	490.97	566.56	300.25	523.34	649.2	329.11	506.3	481.92	112.99	498.25	511.89	106.4	404.57	406.4	81.19	444.25	417.37	48.544	416.76	413.78	52.958	481.28	601.58	34.988	539.41	634.23	40.127	415.09	697.11	51.757	470.99	601.61	658.32	81.557	693.16	599.17	64.514	624.73	570.13	90.344	661.88	689.51	56.906	682.82	491.54	72.09	721.12	487.55	207.69	594.79	382.63	49.079	621.43	276.37	68.956	569.11	308.94	49.17	648.24	348.3	62.461	473.31	113.2	78.975	504.19	117.82	173.82	399.92	82.828	123.84	409.14	53.907	155.26	407.5	57.754	93.463	610.36	37.93	45.166	634.72	45.61	167.49	697.28	55.898	117.68	468.17	1550.3	298.92	426.57	1229.2	311.52
902	3.7542	726.23	1270.6	274.61	570.34	1510.5	454.26	539.34	1520.2	127.83	470.6	1815.5	298.08	697.91	999.85	428.84	697.6	1000.9	159.52	460.93	1032	337.44	458.27	1029.6	233.39	623.56	945.81	509.11	592.51	945.69	80.854	604.7	1095.4	493.22	583.24	1081.6	88.585	448.76	993.54	283.72	655.91	642.05	514.52	734.99	578.52	498.36	670.41	554.12	501.3	723.92	668.23	509.93	701.49	490.19	500.63	710.81	481.33	360.48	598.08	363.59	530.68	619.73	262.85	490.97	566.56	300.25	523.34	649.19	329.11	506.3	481.92	112.99	498.25	511.89	106.4	404.57	406.4	81.191	444.25	417.37	48.544	416.76	413.78	52.959	481.28	601.58	34.988	539.41	634.23	40.127	415.09	697.1	51.756	470.99	601.61	658.32	81.555	693.16	599.17	64.517	624.73	570.13	90.345	661.88	689.51	56.907	682.82	491.53	72.095	721.11	487.55	207.69	594.79	382.63	49.083	621.43	276.36	68.96	569.11	308.94	49.174	648.24	348.3	62.466	473.31	113.19	78.976	504.19	117.82	173.82	399.92	82.828	123.83	409.14	53.907	155.26	407.5	57.753	93.462	610.36	37.931	45.166	634.72	45.611	167.49	697.28	55.898	117.68	468.17	1550.3	298.94	426.55	1229.2	311.52
903	3.7583	726.21	1270.6	274.62	570.34	1510.5	454.28	539.33	1520.2	127.85	470.61	1815.5	298.1	697.89	999.84	428.84	697.59	1000.9	159.52	460.91	1032	337.43	458.25	1029.6	233.39	623.54	945.81	509.1	592.5	945.69	80.851	604.68	1095.4	493.22	583.23	1081.6	88.582	448.75	993.53	283.71	655.9	642.05	514.52	734.99	578.53	498.36	670.41	554.12	501.31	723.91	668.23	509.93	701.49	490.19	500.63	710.81	481.34	360.48	598.08	363.6	530.68	619.73	262.85	490.97	566.55	300.26	523.34	649.19	329.11	506.3	481.92	112.99	498.25	511.89	106.4	404.57	406.4	81.192	444.25	417.37	48.543	416.76	413.78	52.959	481.28	601.58	34.988	539.41	634.23	40.128	415.09	697.1	51.755	470.99	601.62	658.32	81.553	693.16	599.17	64.521	624.73	570.13	90.345	661.89	689.51	56.909	682.83	491.53	72.1	721.11	487.55	207.7	594.8	382.62	49.088	621.43	276.36	68.964	569.11	308.93	49.177	648.24	348.3	62.471	473.31	113.19	78.977	504.18	117.82	173.82	399.92	82.828	123.83	409.14	53.907	155.26	407.5	57.753	93.462	610.36	37.932	45.166	634.72	45.611	167.49	697.28	55.898	117.68	468.17	1550.3	298.97	426.53	1229.1	311.52
904	3.7625	726.2	1270.6	274.62	570.35	1510.4	454.29	539.32	1520.2	127.87	470.62	1815.5	298.13	697.87	999.84	428.84	697.58	1000.9	159.52	460.9	1032	337.42	458.24	1029.6	233.38	623.52	945.81	509.1	592.5	945.68	80.848	604.65	1095.4	493.22	583.22	1081.6	88.58	448.74	993.53	283.7	655.89	642.05	514.52	734.98	578.53	498.36	670.4	554.12	501.31	723.91	668.23	509.93	701.49	490.19	500.63	710.81	481.34	360.48	598.08	363.6	530.68	619.72	262.85	490.97	566.55	300.26	523.34	649.19	329.11	506.3	481.92	112.99	498.25	511.89	106.4	404.57	406.4	81.192	444.25	417.37	48.543	416.77	413.78	52.959	481.28	601.58	34.988	539.41	634.23	40.128	415.09	697.1	51.754	470.99	601.62	658.31	81.551	693.17	599.17	64.524	624.73	570.13	90.345	661.89	689.51	56.91	682.83	491.53	72.106	721.11	487.55	207.71	594.8	382.62	49.092	621.43	276.36	68.968	569.12	308.93	49.18	648.25	348.3	62.477	473.31	113.19	78.978	504.18	117.82	173.82	399.92	82.828	123.83	409.14	53.907	155.26	407.5	57.752	93.461	610.36	37.933	45.167	634.72	45.611	167.49	697.28	55.898	117.68	468.18	1550.3	299	426.51	1229.1	311.53
905	3.7667	726.18	1270.6	274.63	570.35	1510.4	454.3	539.31	1520.2	127.89	470.62	1815.5	298.15	697.85	999.83	428.85	697.57	1000.9	159.52	460.88	1032	337.41	458.23	1029.6	233.38	623.5	945.8	509.1	592.49	945.68	80.846	604.62	1095.4	493.22	583.21	1081.6	88.579	448.72	993.52	283.7	655.88	642.05	514.52	734.98	578.53	498.36	670.4	554.12	501.31	723.9	668.23	509.93	701.49	490.19	500.63	710.82	481.34	360.48	598.08	363.6	530.68	619.72	262.85	490.98	566.55	300.26	523.34	649.19	329.11	506.3	481.92	112.99	498.25	511.89	106.4	404.57	406.4	81.192	444.25	417.37	48.542	416.77	413.78	52.96	481.28	601.58	34.988	539.41	634.23	40.129	415.09	697.1	51.753	470.99	601.62	658.31	81.549	693.17	599.17	64.526	624.73	570.13	90.346	661.89	689.51	56.912	682.83	491.52	72.11	721.1	487.55	207.71	594.8	382.62	49.096	621.44	276.36	68.972	569.12	308.93	49.183	648.25	348.29	62.481	473.31	113.19	78.98	504.18	117.82	173.82	399.92	82.828	123.83	409.14	53.907	155.26	407.5	57.752	93.461	610.36	37.934	45.167	634.72	45.612	167.49	697.28	55.898	117.69	468.18	1550.3	299.03	426.49	1229.1	311.53
906	3.7708	726.17	1270.6	274.64	570.35	1510.4	454.32	539.29	1520.2	127.91	470.63	1815.5	298.17	697.83	999.83	428.85	697.56	1000.9	159.52	460.86	1032	337.4	458.22	1029.6	233.37	623.47	945.8	509.1	592.49	945.68	80.845	604.59	1095.4	493.22	583.21	1081.6	88.578	448.71	993.52	283.69	655.88	642.05	514.52	734.97	578.53	498.36	670.4	554.12	501.31	723.89	668.24	509.93	701.48	490.19	500.64	710.82	481.34	360.48	598.08	363.6	530.68	619.72	262.85	490.98	566.56	300.25	523.34	649.19	329.11	506.3	481.92	112.99	498.25	511.89	106.4	404.57	406.4	81.192	444.25	417.37	48.542	416.77	413.78	52.96	481.28	601.58	34.988	539.41	634.23	40.129	415.09	697.1	51.751	470.99	601.61	658.31	81.548	693.17	599.17	64.529	624.73	570.12	90.346	661.88	689.5	56.913	682.83	491.52	72.115	721.1	487.55	207.72	594.8	382.62	49.1	621.44	276.36	68.976	569.12	308.93	49.186	648.25	348.29	62.486	473.31	113.19	78.981	504.18	117.82	173.82	399.92	82.827	123.83	409.14	53.907	155.26	407.5	57.751	93.461	610.36	37.935	45.167	634.72	45.612	167.49	697.28	55.897	117.69	468.18	1550.3	299.05	426.47	1229.1	311.54
907	3.775	726.16	1270.6	274.65	570.36	1510.4	454.33	539.28	1520.2	127.93	470.64	1815.5	298.19	697.81	999.82	428.85	697.55	1000.9	159.52	460.85	1032	337.39	458.2	1029.6	233.37	623.45	945.79	509.1	592.48	945.68	80.843	604.57	1095.4	493.22	583.2	1081.6	88.578	448.69	993.51	283.68	655.87	642.05	514.52	734.97	578.53	498.36	670.39	554.12	501.31	723.89	668.24	509.93	701.48	490.19	500.64	710.82	481.34	360.48	598.08	363.59	530.68	619.72	262.85	490.98	566.56	300.25	523.34	649.19	329.11	506.3	481.92	112.99	498.25	511.89	106.4	404.58	406.4	81.192	444.25	417.37	48.541	416.77	413.78	52.959	481.28	601.58	34.988	539.41	634.23	40.129	415.08	697.11	51.75	470.99	601.61	658.3	81.547	693.17	599.16	64.531	624.73	570.12	90.346	661.88	689.5	56.915	682.83	491.52	72.119	721.1	487.55	207.72	594.8	382.61	49.103	621.44	276.36	68.979	569.12	308.93	49.188	648.25	348.29	62.49	473.31	113.19	78.983	504.18	117.82	173.82	399.91	82.827	123.83	409.14	53.907	155.26	407.5	57.751	93.46	610.36	37.936	45.167	634.72	45.612	167.49	697.28	55.897	117.69	468.19	1550.3	299.08	426.45	1229.1	311.54
908	3.7792	726.15	1270.5	274.65	570.36	1510.4	454.35	539.26	1520.2	127.96	470.64	1815.5	298.2	697.79	999.81	428.85	697.54	1000.8	159.52	460.83	1032	337.39	458.19	1029.6	233.36	623.43	945.79	509.1	592.48	945.67	80.843	604.54	1095.4	493.22	583.19	1081.6	88.579	448.68	993.5	283.68	655.86	642.05	514.52	734.96	578.53	498.37	670.39	554.12	501.31	723.88	668.24	509.93	701.48	490.19	500.64	710.82	481.34	360.49	598.09	363.59	530.69	619.72	262.85	490.98	566.56	300.25	523.34	649.19	329.1	506.3	481.92	112.99	498.26	511.88	106.4	404.58	406.4	81.191	444.25	417.37	48.541	416.77	413.78	52.958	481.29	601.58	34.988	539.41	634.23	40.129	415.08	697.11	51.749	470.99	601.61	658.3	81.546	693.16	599.16	64.532	624.73	570.12	90.346	661.88	689.5	56.917	682.83	491.51	72.122	721.1	487.55	207.72	594.8	382.61	49.106	621.44	276.36	68.982	569.12	308.93	49.191	648.26	348.29	62.494	473.31	113.18	78.984	504.18	117.82	173.82	399.91	82.827	123.83	409.14	53.906	155.26	407.5	57.75	93.46	610.36	37.936	45.166	634.72	45.613	167.49	697.28	55.896	117.69	468.19	1550.3	299.11	426.43	1229.1	311.55
909	3.7833	726.13	1270.5	274.66	570.37	1510.3	454.37	539.25	1520.2	127.98	470.65	1815.5	298.22	697.78	999.8	428.86	697.53	1000.8	159.52	460.82	1032	337.38	458.18	1029.5	233.36	623.41	945.78	509.1	592.47	945.67	80.842	604.52	1095.3	493.23	583.18	1081.6	88.58	448.66	993.5	283.68	655.86	642.05	514.52	734.96	578.53	498.37	670.38	554.12	501.31	723.87	668.24	509.93	701.48	490.19	500.64	710.82	481.34	360.49	598.09	363.59	530.69	619.72	262.85	490.98	566.56	300.25	523.35	649.19	329.1	506.3	481.92	112.99	498.26	511.88	106.4	404.58	406.4	81.19	444.26	417.37	48.54	416.77	413.78	52.957	481.29	601.58	34.988	539.41	634.23	40.129	415.08	697.11	51.748	470.99	601.61	658.3	81.546	693.16	599.16	64.534	624.73	570.12	90.346	661.87	689.5	56.919	682.83	491.51	72.126	721.1	487.55	207.72	594.8	382.61	49.109	621.44	276.35	68.985	569.12	308.93	49.193	648.26	348.29	62.498	473.31	113.18	78.986	504.18	117.82	173.83	399.91	82.826	123.83	409.14	53.906	155.26	407.5	57.749	93.46	610.36	37.937	45.166	634.72	45.613	167.49	697.28	55.896	117.69	468.19	1550.3	299.15	426.41	1229.1	311.56
